# Blender 3.5.1
# www.blender.org
mtllib control_panel_door.mtl
o Control_Panel_door.001
v 0.637571 0.193051 -0.030011
v 0.009763 0.193051 -0.030011
v 0.009763 -0.193051 -0.030011
v 0.637571 -0.193051 -0.030011
v 0.637571 0.193051 0.026491
v 0.009763 0.193051 0.026491
v 0.637571 -0.193051 0.026491
v 0.009763 -0.193051 0.026491
v 0.637571 -0.026682 0.026491
v 0.009763 -0.026682 0.026491
v 0.637571 0.026682 0.026491
v 0.009763 0.026682 0.026491
v 0.009763 -0.026682 -0.030011
v 0.009763 0.026682 -0.030011
v 0.637571 -0.026682 -0.030011
v 0.637571 0.026682 -0.030011
v 0.516718 0.026682 0.026491
v 0.516718 0.193051 0.026491
v 0.516718 0.193051 -0.030011
v 0.516718 0.026682 -0.030011
v 0.516718 -0.026682 -0.030011
v 0.516718 -0.193051 -0.030011
v 0.516718 -0.193051 0.026491
v 0.516718 -0.026682 0.026491
v 0.637571 0.026682 0.092411
v 0.516718 -0.026682 0.092411
v 0.516718 0.026682 0.092411
v 0.637571 -0.026682 0.092411
v 0.537514 0.026682 0.075931
v 0.616775 0.026682 0.075931
v 0.616775 0.026682 0.042971
v 0.537514 0.026682 0.042971
v 0.616775 -0.026682 0.075931
v 0.537514 -0.026682 0.075931
v 0.537514 -0.026682 0.042971
v 0.616775 -0.026682 0.042971
v 0.012902 0.065920 -0.001760
v 0.012902 0.141257 -0.001760
v 0.025962 0.065920 0.017074
v 0.025962 0.141257 0.017074
v 0.039021 0.065920 -0.001760
v 0.039021 0.141257 -0.001760
v 0.025962 0.065920 -0.020594
v 0.025962 0.141257 -0.020594
v -0.000157 0.065920 -0.020594
v -0.000157 0.141257 -0.020594
v -0.013216 0.065920 -0.001760
v -0.013216 0.141257 -0.001760
v -0.000157 0.065920 0.017074
v -0.000157 0.141257 0.017074
v 0.012902 -0.141257 -0.001760
v 0.012902 -0.065920 -0.001760
v 0.025962 -0.141257 0.017074
v 0.025962 -0.065920 0.017074
v 0.039021 -0.141257 -0.001760
v 0.039021 -0.065920 -0.001760
v 0.025962 -0.141257 -0.020594
v 0.025962 -0.065920 -0.020594
v -0.000157 -0.141257 -0.020594
v -0.000157 -0.065920 -0.020594
v -0.013216 -0.141257 -0.001760
v -0.013216 -0.065920 -0.001760
v -0.000157 -0.141257 0.017074
v -0.000157 -0.065920 0.017074
vn -0.0000 -0.0000 1.0000
vn 1.0000 -0.0000 -0.0000
vn -0.0000 1.0000 -0.0000
vn -1.0000 -0.0000 -0.0000
vn -0.0000 -1.0000 -0.0000
vn -0.0000 -0.0000 -1.0000
vn 0.8218 -0.0000 0.5698
vn 0.8218 -0.0000 -0.5698
vn -0.8218 -0.0000 -0.5698
vn -0.8218 -0.0000 0.5698
vt 0.250000 1.000000
vt 0.416663 1.000000
vt 0.000000 1.000000
vt 0.000000 1.000000
vt 0.416663 1.000000
vt 0.000000 0.743750
vt 0.416663 0.743750
vt 0.000000 0.812500
vt 0.416663 0.812500
vt 0.000000 0.743750
vt 0.250000 0.743750
vt 0.416663 1.000000
vt 0.187500 1.000000
vt 0.416663 0.937500
vt 0.062500 1.000000
vt 0.000000 1.000000
vt 0.000000 0.937500
vt 0.416663 0.875000
vt 0.416663 0.743750
vt 0.187500 0.743750
vt 0.062500 0.743750
vt 0.000000 0.875000
vt 0.000000 0.743750
vt 0.416663 0.829167
vt 0.187500 0.829167
vt 0.250000 0.902088
vt 0.205206 0.864062
vt 0.207550 0.893750
vt 0.062500 0.829167
vt 0.000000 0.829167
vt 0.416663 0.914583
vt 0.187500 0.914583
vt 0.250000 0.937500
vt 0.207550 1.000000
vt 0.205206 1.000000
vt 0.062500 0.914583
vt 0.000000 0.914583
vt 0.000000 0.829167
vt 0.416663 0.829167
vt 0.000000 0.914583
vt 0.416663 0.914583
vt 0.000000 0.829167
vt 0.250000 0.829167
vt 0.000000 0.914583
vt 0.250000 0.914583
vt 0.208331 0.914583
vt 0.062500 0.937500
vt 0.125000 1.000000
vt 0.208331 1.000000
vt 0.208331 0.937500
vt 0.208331 1.000000
vt 0.208331 0.914583
vt 0.208331 0.829167
vt 0.208331 0.743750
vt 0.208331 0.812500
vt 0.208331 0.875000
vt 0.208331 0.743750
vt 0.208331 0.829167
vt 0.062500 0.902088
vt 0.125000 0.893750
vt 0.125000 0.864062
vt 0.416663 0.914583
vt 0.187500 0.937500
vt 0.205206 0.926562
vt 0.207550 0.956250
vt 0.208331 0.829167
vt 0.125000 0.902088
vt 0.125000 0.937500
vt 0.208331 0.914583
vt 0.125000 0.937500
vt 0.125000 0.926562
vt 0.125000 0.956250
vt 0.416663 0.829167
vt 0.187500 0.902088
vt 0.205206 0.937500
vt 0.207550 0.937500
vt 0.145050 0.937500
vt 0.145050 0.967188
vt 0.000000 1.000000
vt 0.052606 1.000000
vt 0.185156 0.937500
vt 0.187500 0.967188
vt 0.021875 1.000000
vt 0.000000 1.000000
vt 0.187500 0.989062
vt 0.185156 0.989062
vt 0.052606 1.000000
vt 0.000000 1.000000
vt 0.145050 0.989062
vt 0.000000 1.000000
vt 0.021875 1.000000
vt 0.185156 0.926562
vt 0.187500 0.926562
vt 0.021875 0.964588
vt 0.000000 0.964588
vt 0.145050 0.926562
vt 0.000000 0.964588
vt 0.052606 0.964588
vt 0.145050 0.904688
vt 0.145050 0.875000
vt 0.000000 0.964588
vt 0.021875 0.964588
vt 0.185156 0.875000
vt 0.187500 0.904688
vt 0.052606 0.964588
vt 0.000000 0.964588
vt 0.000000 0.968750
vt 0.000000 1.000000
vt 0.018044 1.000000
vt 0.036088 1.000000
vt 0.036088 0.968750
vt 0.018044 0.968750
vt 0.000000 1.000000
vt 0.000000 0.968750
vt 0.018044 0.968750
vt 0.036088 0.968750
vt 0.036088 1.000000
vt 0.018044 1.000000
vt 0.018044 1.000000
vt 0.000000 0.875000
vt 0.036088 1.000000
vt 0.036088 0.875000
vt 0.000000 1.000000
vt 0.018044 0.968750
vt 0.036088 1.000000
vt 0.036088 0.968750
vt 0.036088 0.968750
vt 0.036088 0.875000
vt 0.036088 1.000000
vt 0.000000 0.875000
vt 0.036088 1.000000
vt 0.000000 1.000000
vt 0.036088 0.968750
vt 0.018044 0.968750
vt 0.036088 0.875000
vt 0.036088 0.968750
vt 0.000000 0.875000
vt 0.018044 1.000000
vt 0.000000 1.000000
vt 0.036088 1.000000
vt 0.000000 0.968750
vt 0.036088 0.875000
vt 0.018044 0.968750
vt 0.000000 0.875000
vt 0.036088 1.000000
vt 0.000000 1.000000
vt 0.018044 1.000000
vt 0.000000 1.000000
vt 0.036088 0.875000
vt 0.000000 0.968750
vt 0.000000 0.875000
vt 0.036088 1.000000
vt 0.000000 0.968750
vt 0.000000 1.000000
vt 0.018044 1.000000
vt 0.036088 0.875000
vt 0.000000 1.000000
vt 0.000000 0.875000
vt 0.036088 1.000000
vt 0.018044 0.968750
vt 0.000000 1.000000
vt 0.000000 0.968750
vt 0.000000 0.968750
vt 0.000000 1.000000
vt 0.018044 1.000000
vt 0.036088 1.000000
vt 0.036088 0.968750
vt 0.018044 0.968750
vt 0.000000 1.000000
vt 0.000000 0.968750
vt 0.018044 0.968750
vt 0.036088 0.968750
vt 0.036088 1.000000
vt 0.018044 1.000000
vt 0.018044 1.000000
vt 0.000000 0.875000
vt 0.036088 1.000000
vt 0.036088 0.875000
vt 0.000000 1.000000
vt 0.018044 0.968750
vt 0.036088 1.000000
vt 0.036088 0.968750
vt 0.036088 0.968750
vt 0.036088 0.875000
vt 0.036088 1.000000
vt 0.000000 0.875000
vt 0.036088 1.000000
vt 0.000000 1.000000
vt 0.036088 0.968750
vt 0.018044 0.968750
vt 0.036088 0.875000
vt 0.036088 0.968750
vt 0.000000 0.875000
vt 0.018044 1.000000
vt 0.000000 1.000000
vt 0.036088 1.000000
vt 0.000000 0.968750
vt 0.036088 0.875000
vt 0.018044 0.968750
vt 0.000000 0.875000
vt 0.036088 1.000000
vt 0.000000 1.000000
vt 0.018044 1.000000
vt 0.000000 1.000000
vt 0.036088 0.875000
vt 0.000000 0.968750
vt 0.000000 0.875000
vt 0.036088 1.000000
vt 0.000000 0.968750
vt 0.000000 1.000000
vt 0.018044 1.000000
vt 0.036088 0.875000
vt 0.000000 1.000000
vt 0.000000 0.875000
vt 0.036088 1.000000
vt 0.018044 0.968750
vt 0.000000 1.000000
vt 0.000000 0.968750
s 0
usemtl none
f 5/12/1 18/49/1 17/46/1 11/31/1
f 5/13/2 11/32/2 16/45/2 1/1/2
f 1/2/3 19/51/3 18/50/3 5/14/3
f 2/4/4 14/40/4 12/36/4 6/15/4
f 7/18/5 23/56/5 22/55/5 4/9/5
f 16/44/6 20/52/6 19/51/6 1/3/6
f 9/24/1 24/58/1 23/57/1 7/19/1
f 25/62/1 27/69/1 26/66/1 28/73/1
f 8/21/4 10/29/4 13/38/4 3/6/4
f 10/29/4 12/36/4 14/40/4 13/38/4
f 4/10/6 22/54/6 21/53/6 15/42/6
f 15/42/6 21/53/6 20/52/6 16/44/6
f 4/11/2 15/43/2 9/25/2 7/20/2
f 15/43/2 16/45/2 11/32/2 9/25/2
f 12/37/1 17/46/1 18/49/1 6/16/1
f 6/17/3 18/50/3 19/51/3 2/4/3
f 2/5/6 19/51/6 20/52/6 14/41/6
f 14/41/6 20/52/6 21/53/6 13/39/6
f 13/39/6 21/53/6 22/54/6 3/7/6
f 3/8/5 22/55/5 23/56/5 8/22/5
f 8/23/1 23/57/1 24/58/1 10/30/1
f 10/30/1 24/58/1 17/46/1 12/37/1
f 26/67/4 27/70/4 17/47/4 24/59/4
f 25/63/2 28/74/2 9/26/2 11/33/2
f 30/81/3 29/77/3 27/71/3 25/64/3
f 31/85/3 30/82/3 25/65/3 11/34/3
f 32/89/3 31/86/3 11/35/3 17/48/3
f 29/78/3 32/89/3 17/48/3 27/72/3
f 34/96/5 33/92/5 28/75/5 26/68/5
f 35/99/5 34/96/5 26/68/5 24/60/5
f 36/103/5 35/100/5 24/61/5 9/27/5
f 33/93/5 36/104/5 9/28/5 28/76/5
f 36/105/1 31/87/1 32/90/1 35/101/1
f 35/102/2 32/91/2 29/79/2 34/97/2
f 31/88/4 36/106/4 33/94/4 30/83/4
f 34/98/6 29/80/6 30/84/6 33/95/6
f 41/127/5 39/119/5 37/107/5
f 39/120/7 41/128/7 42/131/7 40/123/7
f 40/124/3 42/131/3 38/113/3
f 43/134/5 41/129/5 37/108/5
f 41/130/8 43/135/8 44/140/8 42/132/8
f 42/133/3 44/138/3 38/114/3
f 45/141/5 43/136/5 37/109/5
f 43/137/6 45/142/6 46/145/6 44/139/6
f 44/140/3 46/146/3 38/115/3
f 47/148/5 45/143/5 37/110/5
f 45/144/9 47/149/9 48/152/9 46/146/9
f 46/147/3 48/153/3 38/116/3
f 49/155/5 47/150/5 37/111/5
f 47/151/10 49/156/10 50/159/10 48/154/10
f 48/154/3 50/160/3 38/117/3
f 39/121/5 49/157/5 37/112/5
f 49/158/1 39/122/1 40/125/1 50/161/1
f 50/162/3 40/126/3 38/118/3
f 55/183/5 53/175/5 51/163/5
f 53/176/7 55/184/7 56/187/7 54/179/7
f 54/180/3 56/187/3 52/169/3
f 57/190/5 55/185/5 51/164/5
f 55/186/8 57/191/8 58/196/8 56/188/8
f 56/189/3 58/194/3 52/170/3
f 59/197/5 57/192/5 51/165/5
f 57/193/6 59/198/6 60/201/6 58/195/6
f 58/196/3 60/202/3 52/171/3
f 61/204/5 59/199/5 51/166/5
f 59/200/9 61/205/9 62/208/9 60/202/9
f 60/203/3 62/209/3 52/172/3
f 63/211/5 61/206/5 51/167/5
f 61/207/10 63/212/10 64/215/10 62/210/10
f 62/210/3 64/216/3 52/173/3
f 53/177/5 63/213/5 51/168/5
f 63/214/1 53/178/1 54/181/1 64/217/1
f 64/218/3 54/182/3 52/174/3
