# Blender 3.5.1
# www.blender.org
mtllib control_panel_body_1.mtl
o Control_Panel
v 0.692158 0.265159 0.270647
v 0.692158 0.453501 -0.294380
v 0.692158 0.170987 0.270647
v 0.692158 0.170987 -0.294380
v 0.692158 -0.394040 0.270647
v 0.692158 -0.394040 -0.294380
v 0.692158 -0.299868 0.270647
v 0.692158 -0.299868 -0.294380
v 0.284083 0.265159 0.270647
v 0.284083 0.170987 0.270647
v 0.284083 -0.299868 0.270647
v 0.284083 -0.394040 0.270647
v 0.284083 -0.394040 -0.294380
v 0.284083 -0.299868 -0.294380
v 0.284083 0.170987 -0.294380
v 0.284083 0.453501 -0.294380
v 0.582292 0.453501 -0.294380
v 0.582292 0.265159 0.270647
v 0.582292 0.170987 0.270647
v 0.582292 -0.299868 0.270647
v 0.582292 -0.394040 0.270647
v 0.582292 -0.394040 -0.294380
v 0.582292 -0.299868 -0.294380
v 0.582292 0.170987 -0.294380
v -0.814581 0.265159 0.270647
v -0.814581 0.453501 -0.294380
v -0.814581 0.170987 0.270647
v -0.814581 0.170987 -0.294380
v -0.814581 -0.394040 0.270647
v -0.814581 -0.394040 -0.294380
v -0.814581 -0.299868 0.270647
v -0.814581 -0.299868 -0.294380
v -0.406506 0.265159 0.270647
v -0.406506 0.170987 0.270647
v -0.406506 -0.299868 0.270647
v -0.406506 -0.394040 0.270647
v -0.406506 -0.394040 -0.294380
v -0.406506 -0.299868 -0.294380
v -0.406506 0.170987 -0.294380
v -0.406506 0.453501 -0.294380
v -0.704714 0.453501 -0.294380
v -0.704714 0.265159 0.270647
v -0.704714 0.170987 0.270647
v -0.704714 -0.299868 0.270647
v -0.704714 -0.394040 0.270647
v -0.704714 -0.394040 -0.294380
v -0.704714 -0.299868 -0.294380
v -0.704714 0.170987 -0.294380
v 0.358635 0.312244 0.110556
v 0.498322 0.406415 -0.115455
v 0.498322 0.312244 0.110556
v 0.358635 0.406415 -0.115455
v 0.377469 0.213240 0.083832
v 0.479488 0.307412 -0.123344
v 0.479488 0.213240 0.083832
v 0.377469 0.307412 -0.123344
v 0.252693 0.128610 0.270647
v -0.375115 0.128610 0.270647
v -0.375115 -0.257491 0.270647
v 0.252693 -0.257491 0.270647
v 0.252693 0.128610 -0.106038
v -0.375115 0.128610 -0.106038
v -0.375115 -0.257491 -0.106038
v 0.252693 -0.257491 -0.106038
vn 1.0000 -0.0000 -0.0000
vn -0.0000 -0.0000 1.0000
vn -0.0000 -1.0000 -0.0000
vn -0.0000 -0.0000 -1.0000
vn -0.0000 0.9104 0.4138
vn -0.0000 0.9487 0.3162
vn -1.0000 -0.0000 -0.0000
vn -0.0000 0.9594 0.2822
vn -0.2108 0.9023 0.3760
vn -0.0000 0.9671 0.2545
vn -0.3220 0.8739 0.3641
vn -0.0000 0.2606 -0.9654
vn -0.9831 0.1666 0.0757
vn -0.0000 -0.0794 0.9968
vn 0.9803 0.1800 0.0818
vn -0.0000 1.0000 -0.0000
vt 0.000000 1.000000
vt 1.000000 0.000000
vt 1.000000 1.000000
vt 1.000000 1.000000
vt 0.000000 1.000000
vt 0.000000 0.750000
vt 0.312500 0.750000
vt 1.000000 0.750000
vt 1.000000 1.000000
vt 1.000000 0.750000
vt 0.687500 0.750000
vt 0.000000 0.500000
vt 0.000000 0.750000
vt 0.312500 0.687500
vt 1.000000 0.937500
vt 1.000000 1.000000
vt 0.687500 0.687500
vt 1.000000 0.000000
vt 0.000000 0.437500
vt 0.312500 0.718750
vt 1.000000 0.968750
vt 0.687500 0.718750
vt 0.000000 0.468750
vt 0.666667 1.000000
vt 0.666667 0.000000
vt 0.687500 0.026175
vt 0.687500 0.292212
vt 0.666667 0.750000
vt 0.666667 1.000000
vt 0.708337 1.000000
vt 0.739587 1.000000
vt 0.666667 0.968750
vt 0.708337 0.921875
vt 0.739587 0.687500
vt 0.666667 0.937500
vt 0.666667 1.000000
vt 0.666667 0.000000
vt 0.333333 0.437500
vt 0.333333 0.468750
vt 0.333333 0.500000
vt 0.333333 0.750000
vt 0.333333 1.000000
vt 0.666667 1.000000
vt 0.687500 1.000000
vt 0.687500 0.687500
vt 0.833333 1.000000
vt 0.166667 1.000000
vt 0.861975 0.687500
vt 0.885413 1.000000
vt 0.833333 0.000000
vt 0.833333 1.000000
vt 0.885413 0.026175
vt 0.861975 0.292212
vt 0.833333 0.750000
vt 0.833333 1.000000
vt 0.833333 0.968750
vt 0.833333 0.937500
vt 0.833333 1.000000
vt 0.833333 0.000000
vt 0.166667 0.437500
vt 0.166667 0.468750
vt 0.166667 0.500000
vt 0.166667 0.750000
vt 0.000000 1.000000
vt 1.000000 0.000000
vt 1.000000 1.000000
vt 1.000000 1.000000
vt 0.000000 1.000000
vt 0.000000 0.750000
vt 0.312500 0.750000
vt 1.000000 0.750000
vt 1.000000 1.000000
vt 1.000000 0.750000
vt 0.687500 0.750000
vt 0.000000 0.500000
vt 0.000000 0.750000
vt 0.312500 0.687500
vt 1.000000 0.937500
vt 1.000000 1.000000
vt 0.687500 0.687500
vt 1.000000 0.000000
vt 0.000000 0.437500
vt 0.312500 0.718750
vt 1.000000 0.968750
vt 0.687500 0.718750
vt 0.000000 0.468750
vt 0.333333 1.000000
vt 0.333333 0.000000
vt 0.666667 1.000000
vt 0.666667 0.000000
vt 0.333333 0.750000
vt 0.666667 0.750000
vt 0.666667 1.000000
vt 0.250000 1.000000
vt 0.333333 0.968750
vt 0.666667 0.968750
vt 0.250000 0.687500
vt 0.250000 0.921875
vt 0.333333 0.937500
vt 0.333333 1.000000
vt 0.666667 0.937500
vt 0.666667 1.000000
vt 0.333333 0.000000
vt 0.666667 0.437500
vt 0.666667 0.000000
vt 0.333333 0.437500
vt 0.666667 0.468750
vt 0.333333 0.468750
vt 0.666667 0.500000
vt 0.666667 0.750000
vt 0.333333 0.500000
vt 0.333333 0.750000
vt 0.333333 1.000000
vt 0.666667 1.000000
vt 0.833333 1.000000
vt 0.166667 1.000000
vt 0.833333 0.000000
vt 0.833333 1.000000
vt 0.833333 0.750000
vt 0.833333 1.000000
vt 0.833333 0.968750
vt 0.833333 0.937500
vt 0.833333 1.000000
vt 0.833333 0.000000
vt 0.166667 0.437500
vt 0.166667 0.468750
vt 0.166667 0.500000
vt 0.166667 0.750000
vt 0.736975 0.125000
vt 0.736975 0.391037
vt 0.312500 0.687500
vt 0.312500 0.614856
vt 0.812500 0.588681
vt 0.835938 0.901181
vt 0.447642 0.687500
vt 0.312500 0.750000
vt 0.835938 0.125000
vt 0.812500 0.391037
vt 0.411462 0.687500
vt 0.250000 0.687500
vt 0.736975 0.901181
vt 0.736975 0.588681
vt 0.411462 0.750000
vt 0.312500 0.812498
vt 0.687500 0.364856
vt 0.312500 0.750000
vt 0.375000 0.614858
vt 0.786462 0.562500
vt 0.447644 0.750000
vt 0.312500 0.812500
vt 0.786462 0.364856
vt 0.411462 0.750000
vt 0.250002 0.750000
vt 0.687500 0.562500
vt 0.411462 0.812500
vt 0.375000 0.812500
vt 0.593750 0.921875
vt 0.625000 0.921875
vt 0.479163 1.000000
vt 0.312500 1.000000
vt 0.364587 0.921875
vt 0.062500 1.000000
vt 0.187500 1.000000
vt 0.364587 0.765625
vt 0.364587 1.000000
vt 0.187500 0.743750
vt 0.062500 0.875000
vt 0.593750 1.000000
vt 0.625000 0.765625
vt 0.479163 0.875000
vt 0.312500 0.743750
vt 0.604163 1.000000
vt 0.479163 0.937500
vt 0.250000 1.000000
vt 0.375000 1.000000
vt 0.062500 0.937500
vt 0.250000 1.000000
vt 0.375000 0.843750
vt 0.250000 0.743750
vt 0.062500 0.937500
vt 0.604163 0.843750
vt 0.479163 0.937500
vt 0.250000 0.743750
s 0
usemtl none
f 2/4/1 1/1/1 3/6/1 4/10/1
f 3/7/1 7/20/1 8/22/1 4/11/1
f 6/17/1 8/22/1 7/20/1 5/14/1
f 10/28/2 19/54/2 18/51/2 9/24/2
f 9/24/2 33/87/2 34/91/2 10/28/2
f 11/32/2 20/56/2 19/55/2 10/29/2
f 61/172/2 62/175/2 63/178/2 64/181/2
f 12/35/2 21/57/2 20/56/2 11/32/2
f 11/32/2 35/95/2 36/99/2 12/35/2
f 13/37/3 22/59/3 21/58/3 12/36/3
f 12/36/3 36/100/3 37/103/3 13/37/3
f 14/39/4 23/61/4 22/60/4 13/38/4
f 13/38/4 37/104/4 38/107/4 14/39/4
f 15/40/4 24/62/4 23/61/4 14/39/4
f 14/39/4 38/107/4 39/109/4 15/40/4
f 16/42/4 17/47/4 24/63/4 15/41/4
f 15/41/4 39/110/4 40/114/4 16/42/4
f 53/145/5 55/151/5 54/148/5 56/154/5
f 16/43/6 40/113/6 33/88/6 9/25/6
f 2/4/6 17/46/6 18/50/6 1/2/6
f 1/3/2 18/51/2 19/54/2 3/8/2
f 3/9/2 19/55/2 20/56/2 7/21/2
f 7/21/2 20/56/2 21/57/2 5/15/2
f 5/16/3 21/58/3 22/59/3 6/18/3
f 6/19/4 22/60/4 23/61/4 8/23/4
f 8/23/4 23/61/4 24/62/4 4/12/4
f 4/13/4 24/63/4 17/47/4 2/5/4
f 27/69/7 25/64/7 26/67/7 28/73/7
f 32/85/7 31/83/7 27/70/7 28/74/7
f 31/83/7 32/85/7 30/80/7 29/77/7
f 42/118/2 43/119/2 34/92/2 33/89/2
f 43/120/2 44/121/2 35/96/2 34/93/2
f 44/121/2 45/122/2 36/101/2 35/96/2
f 45/123/3 46/124/3 37/105/3 36/102/3
f 46/125/4 47/126/4 38/108/4 37/106/4
f 47/126/4 48/127/4 39/111/4 38/108/4
f 48/128/4 41/116/4 40/113/4 39/112/4
f 41/115/6 42/117/6 33/90/6 40/114/6
f 42/117/6 41/115/6 26/67/6 25/65/6
f 43/119/2 42/118/2 25/66/2 27/71/2
f 44/121/2 43/120/2 27/72/2 31/84/2
f 45/122/2 44/121/2 31/84/2 29/78/2
f 46/124/3 45/123/3 29/79/3 30/81/3
f 47/126/4 46/125/4 30/82/4 32/86/4
f 48/127/4 47/126/4 32/86/4 28/75/4
f 41/116/4 48/128/4 28/76/4 26/68/4
f 51/137/8 49/129/8 9/26/8 18/52/8
f 50/133/9 51/138/9 18/53/9 17/48/9
f 52/141/10 50/134/10 17/49/10 16/44/10
f 49/130/11 52/142/11 16/45/11 9/27/11
f 55/152/12 53/146/12 49/131/12 51/139/12
f 54/149/13 55/153/13 51/140/13 50/135/13
f 56/155/14 54/150/14 50/136/14 52/143/14
f 53/147/15 56/156/15 52/144/15 49/132/15
f 58/161/2 57/157/2 10/30/2 34/94/2
f 59/164/2 58/161/2 34/94/2 35/97/2
f 60/168/2 59/165/2 35/98/2 11/33/2
f 57/158/2 60/169/2 11/34/2 10/31/2
f 62/176/3 61/173/3 57/159/3 58/162/3
f 63/179/1 62/177/1 58/163/1 59/166/1
f 64/182/16 63/180/16 59/167/16 60/170/16
f 61/174/7 64/183/7 60/171/7 57/160/7
