# Blender 4.4.3
# www.blender.org
mtllib maze.mtl
o Cube
v 0.723158 -0.200000 0.355581
v 0.759402 -0.200000 0.709230
v 0.524414 -0.200000 0.392741
v 0.723158 0.200000 0.355581
v 0.683158 -0.200000 0.355581
v 0.529491 -0.200000 0.954561
v 0.524414 0.200000 0.392741
v 0.683158 0.200000 0.355581
v 0.524414 -0.200000 0.352741
v 0.723158 -0.200000 -0.244419
v 1.000000 0.200000 -1.000000
v 0.723158 0.200000 -0.244419
v 0.529491 0.200000 0.954561
v 0.683158 -0.200000 -0.244419
v 0.683158 0.200000 -0.244419
v 0.524414 0.200000 0.352741
v 0.724414 -0.200000 0.392741
v 0.489491 -0.200000 0.954561
v 0.759402 0.200000 0.709230
v 0.724414 0.200000 0.392741
v 0.489491 0.200000 0.954561
v 0.724414 -0.200000 0.352741
v -0.950000 -0.180000 0.950000
v 0.724414 0.200000 0.352741
v 0.529491 -0.200000 0.354560
v 0.759402 -0.200000 0.669230
v 0.529491 0.200000 0.354560
v 1.000000 -0.200000 -1.000000
v 0.489491 -0.200000 0.354560
v 0.759402 0.200000 0.669230
v 1.000000 0.200000 1.000000
v 0.489491 0.200000 0.354560
v 0.959402 -0.200000 0.709230
v -0.950000 -0.180000 -0.950000
v 1.000000 -0.200000 1.000000
v 0.959402 0.200000 0.709230
v 0.959402 -0.200000 0.669230
v -1.000000 0.200000 -1.000000
v 0.950000 -0.180000 0.950000
v 0.959402 0.200000 0.669230
v -1.000000 -0.200000 -1.000000
v -1.000000 0.200000 1.000000
v 0.950000 -0.180000 -0.950000
v -1.000000 -0.200000 1.000000
v -0.950000 0.200000 0.950000
v 0.950000 0.200000 -0.950000
v -0.950000 0.200000 -0.950000
v 0.950000 0.200000 0.950000
v 0.950000 -0.180000 0.709230
v 0.950000 -0.131846 0.709230
v 0.950000 -0.123846 0.669230
v 0.950000 -0.180000 0.669230
v 0.950000 0.200000 0.669230
v 0.950000 0.200000 0.709230
v 0.759402 -0.180000 0.669230
v 0.759402 -0.180000 0.709230
v 0.957199 0.200000 0.669230
v 0.956174 0.200000 0.709230
v 0.489491 -0.180000 0.950000
v 0.489491 0.107898 0.950000
v 0.529491 0.115898 0.950000
v 0.529491 -0.180000 0.950000
v 0.489491 0.200000 0.950000
v 0.529491 0.200000 0.950000
v 0.489491 -0.180000 0.354560
v 0.489491 -0.200000 0.778964
v 0.489491 -0.200000 0.753837
v 0.489491 -0.200000 0.719974
v 0.529491 -0.200000 0.747227
v 0.529491 -0.200000 0.712454
v 0.501315 -0.200000 0.777209
v 0.503022 -0.200000 0.751601
v 0.529491 -0.180000 0.392741
v 0.724414 -0.180000 0.352741
v 0.724414 -0.180000 0.392741
v 0.524414 -0.180000 0.354560
v 0.524414 -0.180000 0.352741
v 0.524414 0.200000 0.354560
v 0.529491 0.200000 0.392741
v 0.524414 -0.200000 0.354560
v 0.530123 -0.200000 0.352741
v 0.529491 -0.200000 0.392741
v 0.683158 -0.180000 0.352741
v 0.723158 -0.180000 -0.244419
v 0.723158 -0.180000 0.352741
v 0.683158 -0.180000 -0.244419
v 0.723158 0.200000 0.352741
v 0.683158 0.200000 0.352741
v 0.722968 0.200000 0.352741
v 0.683158 -0.200000 0.352741
v 0.723158 0.200000 0.352752
v 0.723158 -0.200000 0.352741
v 0.723158 -0.200000 -0.212560
v 0.723158 -0.200000 -0.202992
v 0.722969 0.200000 0.352754
v 0.720537 -0.200000 -0.205105
v 0.719740 -0.200000 -0.193152
vn -0.0000 1.0000 -0.0000
vn -0.0000 -0.0000 1.0000
vn -1.0000 -0.0000 -0.0000
vn -0.0000 -1.0000 -0.0000
vn 1.0000 -0.0000 -0.0000
vn -0.0000 -0.0000 -1.0000
vt 0.631250 0.743750
vt 0.683814 0.743750
vt 0.683814 0.744320
vt 0.688814 0.744320
vt 0.688814 0.743750
vt 0.868750 0.743750
vt 0.875000 0.750000
vt 0.625000 0.500000
vt 0.868750 0.506250
vt 0.631250 0.506250
vt 0.625000 0.750000
vt 0.375000 1.000000
vt 0.375000 0.750000
vt 0.625000 0.000000
vt 0.375000 0.250000
vt 0.375000 0.000000
vt 0.125000 0.500000
vt 0.375000 0.500000
vt 0.125000 0.750000
vt 0.625000 0.250000
vt 0.612500 0.250000
vt 0.612500 0.000000
vt 0.612500 0.500000
vt 0.405096 0.718320
vt 0.375000 0.718320
vt 0.375000 0.713057
vt 0.410096 0.713057
vt 0.554936 0.810593
vt 0.375000 0.810593
vt 0.375000 0.805330
vt 0.559936 0.805330
vt 0.612500 0.750000
vt 0.875000 0.500000
vt 0.630075 0.713654
vt 0.630478 0.713654
vt 0.630350 0.708654
vt 0.630075 0.708654
vt 0.631250 0.708654
vt 0.631250 0.713654
vt 0.625000 1.000000
vt 0.369925 0.713654
vt 0.369925 0.708654
vt 0.316186 0.714057
vt 0.316186 0.674093
vt 0.340552 0.674093
vt 0.340552 0.669093
vt 0.340395 0.669093
vt 0.340395 0.599626
vt 0.340395 0.598430
vt 0.340395 0.594448
vt 0.335395 0.594448
vt 0.335395 0.669093
vt 0.316265 0.669093
vt 0.315552 0.669093
vt 0.315552 0.669320
vt 0.311186 0.669320
vt 0.311186 0.714997
vt 0.311186 0.719230
vt 0.311186 0.722371
vt 0.311186 0.744320
vt 0.316186 0.744320
vt 0.316186 0.718403
vt 0.344925 0.713654
vt 0.344925 0.708654
vt 0.340067 0.599362
vt 0.339967 0.600856
vt 0.316186 0.669320
vt 0.335395 0.669448
vt 0.340395 0.669448
vt 0.312878 0.718950
vt 0.312664 0.722151
vt 0.315552 0.674093
vt 0.612500 0.718320
vt 0.612500 0.713057
vt 0.410096 0.713057
vt 0.612500 1.000000
vt 0.612500 0.810593
vt 0.612500 0.805330
vt 0.319670 0.750000
vt 0.349921 0.718320
vt 0.349921 0.713057
vt 0.375000 0.713057
vt 0.314407 0.750000
vt 0.314407 0.671653
vt 0.319002 0.671653
vt 0.319002 0.671413
vt 0.339889 0.671413
vt 0.339889 0.592840
vt 0.345152 0.592840
vt 0.345152 0.671413
vt 0.345318 0.671413
vt 0.345318 0.676676
vt 0.319670 0.676676
vt 0.387500 0.000000
vt 0.387500 0.250000
vt 0.625000 0.488248
vt 0.422596 0.488248
vt 0.387500 0.488248
vt 0.417596 0.761752
vt 0.625000 0.761752
vt 0.387500 1.000000
vt 0.387500 0.761752
vt 0.636752 0.500000
vt 0.636752 0.750000
vt 0.567436 0.250000
vt 0.387500 0.500000
vt 0.625000 0.750000
vt 0.572436 0.750000
vt 0.387500 0.750000
vt 0.873100 0.750000
vt 0.640908 0.750000
vt 0.640908 0.718266
vt 0.625000 0.718266
vt 0.873100 0.500000
vt 0.625000 0.238626
vt 0.387500 0.238626
vt 0.387500 0.498430
vt 0.625000 0.498430
vt 0.625000 0.448430
vt 0.387500 0.448430
vt 0.387500 0.993653
vt 0.625000 0.993653
vt 0.676570 0.500000
vt 0.875000 0.511374
vt 0.868653 0.511374
vt 0.868653 0.750000
vt 0.626570 0.500000
vt 0.626570 0.500073
vt 0.626570 0.517751
vt 0.676570 0.517751
vt 0.626806 0.500000
vt 0.626805 0.500084
vt 0.873817 0.750000
vt 0.873817 0.500000
vt 0.873817 0.748817
s 0
usemtl Material
f 48/1/1 64/2/1 13/3/1 21/4/1 63/5/1 45/6/1 42/7/1
f 63/5/1 21/4/1 13/3/1 64/2/1
f 11/8/1 47/9/1 46/10/1
f 31/11/2 44/12/2 35/13/2
f 42/14/3 41/15/3 44/16/3
f 41/17/4 28/18/4 44/19/4
f 11/8/5 35/13/5 28/18/5
f 38/20/6 28/18/6 41/15/6
f 23/16/5 47/21/5 45/22/5
f 34/15/2 46/23/2 47/21/2
f 39/13/3 50/24/3 49/25/3
f 43/18/3 52/26/3 51/27/3 46/23/3
f 23/12/6 60/28/6 59/29/6
f 39/13/6 62/30/6 61/31/6 48/32/6
f 34/17/1 23/19/1 43/18/1
f 47/9/1 38/33/1 42/7/1
f 31/11/1 48/1/1 42/7/1
f 45/6/1 47/9/1 42/7/1
f 36/34/1 58/35/1 48/1/1 31/11/1 11/8/1 57/36/1 40/37/1
f 58/35/1 36/34/1 40/37/1 57/36/1
f 11/8/1 38/33/1 47/9/1
f 46/10/1 53/38/1 57/36/1 11/8/1
f 54/39/1 48/1/1 58/35/1
f 53/38/1 54/39/1 58/35/1 57/36/1
f 31/11/2 42/40/2 44/12/2
f 42/14/3 38/20/3 41/15/3
f 35/13/4 33/41/4 37/42/4 28/18/4
f 70/43/4 82/44/4 17/45/4 22/46/4 92/47/4 94/48/4 93/49/4 10/50/4 14/51/4 90/52/4 81/53/4 9/54/4 80/55/4 29/56/4 68/57/4 67/58/4 66/59/4 18/60/4 6/61/4 69/62/4 2/63/4 33/41/4 35/13/4 44/19/4 28/18/4 37/42/4 26/64/4
f 14/51/4 10/50/4 93/49/4 96/65/4 97/66/4 94/48/4 92/47/4 90/52/4
f 94/48/4 97/66/4 96/65/4 93/49/4
f 92/47/4 22/46/4 17/45/4 82/44/4 25/67/4 81/53/4 90/52/4 5/68/4 1/69/4
f 1/69/4 5/68/4 90/52/4 92/47/4
f 9/54/4 81/53/4 25/67/4 80/55/4
f 2/63/4 69/62/4 70/43/4 26/64/4
f 67/58/4 72/70/4 71/71/4 66/59/4
f 29/56/4 80/55/4 3/72/4 82/44/4 70/43/4 68/57/4
f 80/55/4 25/67/4 82/44/4 3/72/4
f 72/70/4 67/58/4 68/57/4 70/43/4 69/62/4 6/61/4 18/60/4 66/59/4 71/71/4
f 26/64/4 37/42/4 33/41/4 2/63/4
f 11/8/5 31/11/5 35/13/5
f 38/20/6 11/8/6 28/18/6
f 23/16/5 34/15/5 47/21/5
f 34/15/2 43/18/2 46/23/2
f 48/32/3 54/73/3 50/24/3 39/13/3
f 53/74/3 46/23/3 51/75/3
f 45/76/6 63/77/6 60/28/6 23/12/6
f 64/78/6 48/32/6 61/31/6
f 62/79/1 39/13/1 49/25/1 56/80/1 55/81/1 52/82/1 43/18/1 23/19/1 59/83/1 65/84/1 76/85/1 77/86/1 83/87/1 86/88/1 84/89/1 85/90/1 74/91/1 75/92/1 73/93/1
f 56/94/3 19/14/3 30/20/3 55/95/3
f 55/95/6 30/20/6 53/96/6 51/97/6 52/98/6
f 50/99/2 54/100/2 19/40/2 56/101/2 49/102/2
f 53/103/1 30/33/1 19/7/1 54/104/1
f 60/105/3 63/20/3 32/20/3 65/95/3 59/95/3
f 65/106/6 32/8/6 78/8/6 76/106/6
f 79/107/5 64/11/5 61/108/5 62/109/5 73/109/5
f 64/110/1 79/111/1 7/112/1 78/113/1 32/8/1 63/114/1
f 27/11/1 78/113/1 7/112/1 79/111/1
f 78/115/3 16/20/3 77/95/3 76/116/3
f 24/8/6 74/106/6 85/117/6 87/118/6
f 77/95/6 16/20/6 88/119/6 83/120/6
f 74/106/5 24/8/5 20/11/5 75/109/5
f 73/121/2 75/109/2 20/11/2 79/122/2
f 88/123/1 16/33/1 78/124/1 27/125/1 79/126/1 20/11/1 24/8/1 87/127/1 91/128/1 4/129/1 8/130/1
f 89/131/1 88/123/1 8/130/1 4/129/1 91/128/1 95/132/1
f 95/132/1 91/128/1 87/127/1 89/131/1
f 15/20/3 86/95/3 83/95/3 88/20/3
f 86/106/6 15/8/6 12/8/6 84/106/6
f 85/109/5 84/109/5 12/11/5 87/11/5
f 87/133/1 12/11/1 15/8/1 88/134/1 89/135/1
o Cube.002
v 0.759402 -0.200000 0.709230
v 0.759402 0.200000 0.709230
v 0.759402 -0.200000 0.669230
v 0.759402 0.200000 0.669230
v 0.959402 -0.200000 0.709230
v 0.959402 0.200000 0.709230
v 0.959402 -0.200000 0.669230
v 0.959402 0.200000 0.669230
vn -1.0000 -0.0000 -0.0000
vn -0.0000 -0.0000 -1.0000
vn 1.0000 -0.0000 -0.0000
vn -0.0000 -0.0000 1.0000
vn -0.0000 -1.0000 -0.0000
vn -0.0000 1.0000 -0.0000
vt 0.375000 0.000000
vt 0.625000 0.000000
vt 0.625000 0.250000
vt 0.375000 0.250000
vt 0.625000 0.500000
vt 0.375000 0.500000
vt 0.625000 0.750000
vt 0.375000 0.750000
vt 0.625000 1.000000
vt 0.375000 1.000000
vt 0.125000 0.500000
vt 0.125000 0.750000
vt 0.875000 0.500000
vt 0.875000 0.750000
s 0
f 98/136/7 99/137/7 101/138/7 100/139/7
f 100/139/8 101/138/8 105/140/8 104/141/8
f 104/141/9 105/140/9 103/142/9 102/143/9
f 102/143/10 103/142/10 99/144/10 98/145/10
f 100/146/11 104/141/11 102/143/11 98/147/11
f 105/140/12 101/148/12 99/149/12 103/142/12
o Cube.003
v 0.529491 -0.200000 0.954561
v 0.529491 0.200000 0.954561
v 0.489491 -0.200000 0.954561
v 0.489491 0.200000 0.954561
v 0.529491 -0.200000 0.354560
v 0.529491 0.200000 0.354560
v 0.489491 -0.200000 0.354560
v 0.489491 0.200000 0.354560
vn -0.0000 -0.0000 1.0000
vn -1.0000 -0.0000 -0.0000
vn -0.0000 -0.0000 -1.0000
vn 1.0000 -0.0000 -0.0000
vn -0.0000 -1.0000 -0.0000
vn -0.0000 1.0000 -0.0000
vt 0.375000 0.000000
vt 0.625000 0.000000
vt 0.625000 0.250000
vt 0.375000 0.250000
vt 0.625000 0.500000
vt 0.375000 0.500000
vt 0.625000 0.750000
vt 0.375000 0.750000
vt 0.625000 1.000000
vt 0.375000 1.000000
vt 0.125000 0.500000
vt 0.125000 0.750000
vt 0.875000 0.500000
vt 0.875000 0.750000
s 0
f 106/150/13 107/151/13 109/152/13 108/153/13
f 108/153/14 109/152/14 113/154/14 112/155/14
f 112/155/15 113/154/15 111/156/15 110/157/15
f 110/157/16 111/156/16 107/158/16 106/159/16
f 108/160/17 112/155/17 110/157/17 106/161/17
f 113/154/18 109/162/18 107/163/18 111/156/18
o Cube.004
v 0.524414 -0.200000 0.392741
v 0.524414 0.200000 0.392741
v 0.524414 -0.200000 0.352741
v 0.524414 0.200000 0.352741
v 0.724414 -0.200000 0.392741
v 0.724414 0.200000 0.392741
v 0.724414 -0.200000 0.352741
v 0.724414 0.200000 0.352741
vn -1.0000 -0.0000 -0.0000
vn -0.0000 -0.0000 -1.0000
vn 1.0000 -0.0000 -0.0000
vn -0.0000 -0.0000 1.0000
vn -0.0000 -1.0000 -0.0000
vn -0.0000 1.0000 -0.0000
vt 0.375000 0.000000
vt 0.625000 0.000000
vt 0.625000 0.250000
vt 0.375000 0.250000
vt 0.625000 0.500000
vt 0.375000 0.500000
vt 0.625000 0.750000
vt 0.375000 0.750000
vt 0.625000 1.000000
vt 0.375000 1.000000
vt 0.125000 0.500000
vt 0.125000 0.750000
vt 0.875000 0.500000
vt 0.875000 0.750000
s 0
f 114/164/19 115/165/19 117/166/19 116/167/19
f 116/167/20 117/166/20 121/168/20 120/169/20
f 120/169/21 121/168/21 119/170/21 118/171/21
f 118/171/22 119/170/22 115/172/22 114/173/22
f 116/174/23 120/169/23 118/171/23 114/175/23
f 121/168/24 117/176/24 115/177/24 119/170/24
o Cube.005
v 0.723158 -0.200000 0.355581
v 0.723158 0.200000 0.355581
v 0.683158 -0.200000 0.355581
v 0.683158 0.200000 0.355581
v 0.723158 -0.200000 -0.244419
v 0.723158 0.200000 -0.244419
v 0.683158 -0.200000 -0.244419
v 0.683158 0.200000 -0.244419
vn -0.0000 -0.0000 1.0000
vn -1.0000 -0.0000 -0.0000
vn -0.0000 -0.0000 -1.0000
vn 1.0000 -0.0000 -0.0000
vn -0.0000 -1.0000 -0.0000
vn -0.0000 1.0000 -0.0000
vt 0.375000 0.000000
vt 0.625000 0.000000
vt 0.625000 0.250000
vt 0.375000 0.250000
vt 0.625000 0.500000
vt 0.375000 0.500000
vt 0.625000 0.750000
vt 0.375000 0.750000
vt 0.625000 1.000000
vt 0.375000 1.000000
vt 0.125000 0.500000
vt 0.125000 0.750000
vt 0.875000 0.500000
vt 0.875000 0.750000
s 0
f 122/178/25 123/179/25 125/180/25 124/181/25
f 124/181/26 125/180/26 129/182/26 128/183/26
f 128/183/27 129/182/27 127/184/27 126/185/27
f 126/185/28 127/184/28 123/186/28 122/187/28
f 124/188/29 128/183/29 126/185/29 122/189/29
f 129/182/30 125/190/30 123/191/30 127/184/30
