# Blender 3.5.1
# www.blender.org
mtllib Radio.mtl
o Radio
v -0.172029 -0.106691 0.060562
v -0.124735 0.106691 0.036658
v -0.150211 -0.060707 -0.060562
v -0.150211 0.060707 -0.060562
v 0.172029 -0.106691 0.060562
v 0.162073 0.106691 0.007795
v 0.172029 -0.106691 -0.060562
v 0.162073 0.106691 -0.007795
v -0.026555 -0.060707 -0.060562
v -0.026555 0.060707 -0.060562
v -0.011194 -0.106691 0.060562
v -0.058489 0.106691 0.036658
v -0.124735 0.106691 -0.036658
v -0.172029 -0.106691 -0.060562
v -0.003621 -0.100008 -0.060562
v -0.058489 0.106691 -0.036658
v -0.150211 0.060707 -0.071181
v -0.150211 -0.060707 -0.071181
v -0.026555 -0.060707 -0.071181
v -0.026555 0.060707 -0.071181
v 0.146148 0.106691 -0.007795
v 0.136191 -0.106691 0.060562
v 0.129508 -0.100008 -0.060562
v 0.146148 0.106691 0.007795
v 0.136191 0.106691 -0.060562
v 0.172029 0.106691 -0.060562
v 0.172029 0.106691 0.060562
v 0.136191 0.106691 0.060562
v 0.211184 0.367096 -0.007795
v 0.226873 0.364364 -0.007795
v 0.226873 0.364364 0.007795
v 0.211184 0.367096 0.007795
v -0.172029 0.000000 0.060562
v -0.172029 0.000000 -0.060562
v 0.172029 0.000000 -0.060562
v 0.172029 0.000000 0.060562
v -0.011194 0.000000 0.060562
v -0.003621 -0.042823 -0.060562
v -0.150211 0.000000 -0.060562
v -0.026555 0.000000 -0.060562
v -0.150211 0.000000 -0.071181
v -0.026555 0.000000 -0.071181
v 0.136191 0.000000 0.060562
v 0.129508 -0.042823 -0.060562
v 0.136191 -0.106691 -0.060562
v -0.011194 -0.106691 -0.060562
v -0.010304 -0.036141 -0.060562
v 0.136191 -0.036141 -0.060562
v 0.129508 -0.100008 -0.034637
v -0.003621 -0.100008 -0.034637
v -0.003621 -0.042823 -0.034637
v 0.129508 -0.042823 -0.034637
v -0.172029 0.106691 0.060562
v -0.172029 0.106691 -0.060562
v -0.011194 0.106691 0.060562
v -0.011194 0.106691 -0.060562
v -0.124735 0.124747 0.036658
v -0.124735 0.124747 -0.036658
v -0.058489 0.124747 0.036658
v -0.058489 0.124747 -0.036658
vn -1.0000 -0.0000 -0.0000
vn -0.0000 -0.0000 -1.0000
vn 1.0000 -0.0000 -0.0000
vn -0.0000 -0.0000 1.0000
vn -0.0000 -1.0000 -0.0000
vn -0.0000 1.0000 -0.0000
vn 0.1715 0.9852 -0.0000
vn -0.9702 0.2423 -0.0000
vn 0.9698 -0.2439 -0.0000
vt 0.125000 0.750000
vt 0.375000 1.000000
vt 0.375000 0.000000
vt 0.860854 0.700663
vt 0.412123 0.273024
vt 0.587877 0.273024
vt 0.375000 0.750000
vt 0.632797 0.729450
vt 0.375000 0.500000
vt 0.632797 0.520550
vt 0.412123 0.322160
vt 0.587877 0.322160
vt 0.220183 0.750000
vt 0.375000 0.904817
vt 0.793963 0.700663
vt 0.860854 0.549337
vt 0.125000 0.500000
vt 0.375000 0.250000
vt 0.386840 0.350965
vt 0.793963 0.549337
vt 0.587877 0.273024
vt 0.412123 0.273024
vt 0.412123 0.322160
vt 0.587877 0.322160
vt 0.645268 0.520550
vt 0.346935 0.750000
vt 0.375000 0.778065
vt 0.386840 0.466153
vt 0.645268 0.729450
vt 0.625000 0.471935
vt 0.653065 0.500000
vt 0.625000 0.500000
vt 0.625000 0.750000
vt 0.625000 0.778065
vt 0.653065 0.750000
vt 0.645268 0.520550
vt 0.632797 0.520550
vt 0.632797 0.729450
vt 0.645268 0.729450
vt 0.500000 1.000000
vt 0.500000 0.000000
vt 0.500000 0.250000
vt 0.500000 0.500000
vt 0.500000 0.750000
vt 0.500000 0.904817
vt 0.488160 0.350965
vt 0.500000 0.273024
vt 0.500000 0.322160
vt 0.500000 0.273024
vt 0.500000 0.322160
vt 0.500000 0.778065
vt 0.488160 0.466153
vt 0.346935 0.500000
vt 0.375000 0.471935
vt 0.220183 0.500000
vt 0.375000 0.345183
vt 0.500000 0.345183
vt 0.500000 0.471935
vt 0.386840 0.466153
vt 0.386840 0.350965
vt 0.488160 0.350965
vt 0.488160 0.466153
vt 0.625000 0.000000
vt 0.625000 1.000000
vt 0.875000 0.750000
vt 0.625000 0.250000
vt 0.875000 0.500000
vt 0.625000 0.904817
vt 0.779817 0.750000
vt 0.625000 0.345183
vt 0.779817 0.500000
vt 0.860854 0.700663
vt 0.860854 0.549337
vt 0.793963 0.700663
vt 0.793963 0.549337
s 0
usemtl Grey
f 33/41/1 53/63/1 54/66/1 34/42/1
f 48/58/2 25/30/2 26/32/2 35/43/2
f 35/43/3 26/32/3 27/33/3 36/44/3
f 37/45/4 55/68/4 53/64/4 33/40/4
f 45/53/5 7/9/5 5/7/5 22/26/5
f 16/20/2 13/16/2 58/73/2 60/75/2
f 25/31/6 56/71/6 55/69/6 28/35/6
f 14/17/5 46/55/5 11/13/5 1/1/5
f 43/51/4 28/34/4 55/68/4 37/45/4
f 39/47/1 4/6/1 17/21/1 41/49/1
f 39/47/2 3/5/2 14/18/2 34/42/2
f 3/5/2 9/11/2 46/56/2 14/18/2
f 10/12/2 4/6/2 54/66/2 56/70/2
f 40/48/2 10/12/2 56/70/2 47/57/2
f 41/49/2 17/21/2 20/24/2 42/50/2
f 40/48/3 9/11/3 19/23/3 42/50/3
f 9/11/5 3/5/5 18/22/5 19/23/5
f 4/6/6 10/12/6 20/24/6 17/21/6
f 36/44/4 27/33/4 28/34/4 43/51/4
f 24/29/4 6/8/4 31/38/4 32/39/4
f 46/55/5 45/53/5 22/26/5 11/13/5
f 47/57/2 56/70/2 25/30/2 48/58/2
f 21/25/6 8/10/6 26/32/6 25/31/6
f 8/10/6 6/8/6 27/33/6 26/32/6
f 6/8/6 24/29/6 28/35/6 27/33/6
f 24/29/6 21/25/6 25/31/6 28/35/6
f 30/37/7 29/36/7 32/39/7 31/38/7
f 8/10/2 21/25/2 29/36/2 30/37/2
f 21/25/8 24/29/8 32/39/8 29/36/8
f 6/8/9 8/10/9 30/37/9 31/38/9
f 38/46/5 44/52/5 52/62/5 51/61/5
f 5/7/4 36/44/4 43/51/4 22/27/4
f 10/12/3 40/48/3 42/50/3 20/24/3
f 18/22/2 41/49/2 42/50/2 19/23/2
f 9/11/2 40/48/2 47/57/2 46/56/2
f 4/6/2 39/47/2 34/42/2 54/66/2
f 3/5/1 39/47/1 41/49/1 18/22/1
f 22/27/4 43/51/4 37/45/4 11/14/4
f 11/14/4 37/45/4 33/40/4 1/2/4
f 7/9/3 35/43/3 36/44/3 5/7/3
f 45/54/2 48/58/2 35/43/2 7/9/2
f 1/3/1 33/41/1 34/42/1 14/18/1
f 15/19/2 23/28/2 45/54/2 46/56/2
f 38/46/2 15/19/2 46/56/2 47/57/2
f 23/28/2 44/52/2 48/58/2 45/54/2
f 44/52/2 38/46/2 47/57/2 48/58/2
f 50/60/2 51/61/2 52/62/2 49/59/2
f 15/19/3 38/46/3 51/61/3 50/60/3
f 44/52/1 23/28/1 49/59/1 52/62/1
f 23/28/6 15/19/6 50/60/6 49/59/6
f 2/4/6 13/16/6 54/67/6 53/65/6
f 12/15/6 2/4/6 53/65/6 55/69/6
f 13/16/6 16/20/6 56/71/6 54/67/6
f 16/20/6 12/15/6 55/69/6 56/71/6
f 60/75/6 58/73/6 57/72/6 59/74/6
f 13/16/1 2/4/1 57/72/1 58/73/1
f 12/15/3 16/20/3 60/75/3 59/74/3
f 2/4/4 12/15/4 59/74/4 57/72/4
